<svg height="512" viewBox="0 0 56 56" width="512" xmlns="http://www.w3.org/2000/svg"><g id="007---Terminal" transform="translate(-1)"><path id="Shape" d="m11 36h36c1.6568542 0 3-1.3431458 3-3v-30c0-1.65685425-1.3431458-3-3-3h-36c-1.65685425 0-3 1.34314575-3 3v30c0 1.6568542 1.34314575 3 3 3zm-1-32c0-1.1045695.8954305-2 2-2h34c1.1045695 0 2 .8954305 2 2v25c0 1.1045695-.8954305 2-2 2h-34c-1.1045695 0-2-.8954305-2-2z"/><path id="Shape" d="m43 39c-.5522847 0-1-.4477153-1-1h-2c0 .5522847-.4477153 1-1 1s-1-.4477153-1-1h-2c0 .5522847-.4477153 1-1 1s-1-.4477153-1-1h-2c0 .5522847-.4477153 1-1 1s-1-.4477153-1-1h-2c0 .5522847-.4477153 1-1 1s-1-.4477153-1-1h-2c0 .5522847-.4477153 1-1 1s-1-.4477153-1-1h-2c0 .5522847-.4477153 1-1 1s-1-.4477153-1-1h-2c0 .5522847-.4477153 1-1 1s-1-.4477153-1-1h-2v3h34v-3h-2c0 .5522847-.4477153 1-1 1z"/><path id="Shape" d="m46 4h-34v25h34zm-26.4 6.8c-4.269 3.2-4.14 3.2-4.6 3.2-.4304304 0-.8125693-.2754301-.9486833-.6837722-.136114-.4083422.004339-.8579696.3486833-1.1162278l2.933-2.2-2.933-2.2c-.2858125-.21435935-.4355547-.5649147-.3928203-.91961524s.2714531-.65965882.6-.8c.3285469-.14034119.7070078-.09474411.9928203.11961524l4 3c.2518058.18885438.4.4852427.4.8s-.1481942.6111456-.4.8zm5.4 3.2h-3c-.5522847 0-1-.4477153-1-1s.4477153-1 1-1h3c.5522847 0 1 .4477153 1 1s-.4477153 1-1 1z"/><path id="Shape" d="m10 47-2.235 4.959h27.236v-4.959z"/><path id="Shape" d="m56.927 54.629-4.817-9.669c-.4408749-1.1753661-1.5626765-1.9556114-2.818-1.96h-40.584c-1.22796421-.0042586-2.33315993.7441792-2.785 1.886l-4.883 9.814c-.09264032.3046097-.03576938.6350873.15336529.8912072.18913467.2561198.48825109.4077085.80663471.4087928h54c.3314603-.0005411.6411149-.1652878.8267748-.4398722s.2231976-.6233227.1002252-.9311278zm-19.927-2.629c0 1.1045695-.8954305 2-2 2h-27.276c-.71312543.0004832-1.37255989-.3787821-1.73075496-.9954218-.35819507-.6166396-.3609555-1.3773553-.00724504-1.9965782l2.236-4.919c.34690233-.6627258 1.03001294-1.0811214 1.778-1.089h25c1.1045695 0 2 .8954305 2 2zm13.276 2h-9.276c-1.1045695 0-2-.8954305-2-2v-5c0-1.1045695.8954305-2 2-2h7c.7175975.0002315 1.3800717.3848939 1.736 1.008l2.32 5.081c.3171997.6199395.2890993 1.3602407-.0741832 1.9543505-.3632826.5941098-1.00944.9564853-1.7058168.9566495z"/><path id="Shape" d="m41 47v5h9.282l-2.324-5.082z"/></g></svg>