<svg id="Layer_1" height="512" viewBox="0 0 512 512" width="512" xmlns="http://www.w3.org/2000/svg" data-name="Layer 1"><path d="m463.42 394.34a10.087 10.087 0 0 1 8.8 15.01l-28.12 70.49a10.1 10.1 0 0 1 -8.8 5.16h-143.64a10.082 10.082 0 0 1 -7.64-3.5l.01-.01 40.77-78.53a20.159 20.159 0 0 1 16.53-8.62z" fill="#e48e66"/><path d="m441.21 392.79v1.55h-99.88a20.159 20.159 0 0 0 -16.53 8.62l-40.77 78.53-.01.01a10.07 10.07 0 0 1 -2.44-6.58v-134.76a10.085 10.085 0 0 1 10.08-10.09h40.77a10.082 10.082 0 0 1 6.34 2.25l18.82 15.21a10.073 10.073 0 0 0 6.34 2.24h67.2a10.076 10.076 0 0 1 10.08 10.08z" fill="#f8ec7d"/><circle cx="396.64" cy="277.4" fill="#6fe3ff" r="15.03"/><path d="m354.49 184.8v-96.49h-47.64v112.32h-142.58a17.645 17.645 0 0 1 -17.61-17.62v-9.19a17.643 17.643 0 0 1 17.61-17.61h26.81v-88.83l24.76.25h.76v71.48l17.87 29.61 17.87-29.61v-71.22h1.02l124.96.51v132.23h-23.83z" fill="#f8ec7d"/><path d="m354.49 184.8v49.78h-47.64v-146.27h47.64zm-15.73 26.04a8.425 8.425 0 1 0 -8.43 8.42 8.422 8.422 0 0 0 8.43-8.42z" fill="#e48e66"/><path d="m330.33 202.42a8.42 8.42 0 1 1 -8.42 8.42 8.422 8.422 0 0 1 8.42-8.42z" fill="#f8ec7d"/><circle cx="258.77" cy="277.4" fill="#6fe3ff" r="15.03"/><path d="m252.34 67.89v71.22l-17.87 29.61-17.87-29.61v-71.48-15.83h.26 35.48z" fill="#e48e66"/><path d="m252.34 25v26.8h-35.48-.26v-26.8z" fill="#6fe3ff"/><path d="m222.32 394.34a10.1 10.1 0 0 1 8.81 15.01l-28.12 70.49a10.111 10.111 0 0 1 -8.81 5.16h-143.63a10.026 10.026 0 0 1 -7.64-3.51l40.77-78.53a20.172 20.172 0 0 1 16.53-8.62z" fill="#e48e66"/><path d="m120.9 349.57a8.907 8.907 0 0 0 1.93.2h67.21a10.076 10.076 0 0 1 10.08 10.08v34.49h-99.89a20.172 20.172 0 0 0 -16.53 8.62l-40.77 78.53a10 10 0 0 1 -2.45-6.57v-134.76a10.093 10.093 0 0 1 10.09-10.09h40.77a10.1 10.1 0 0 1 6.34 2.25l18.81 15.21a9.916 9.916 0 0 0 4.41 2.04z" fill="#f8ec7d"/><path d="m191.08 67.38v88.83h-26.81a17.643 17.643 0 0 0 -17.61 17.61v-117.42a17.652 17.652 0 0 1 17.61-17.62h26.81z" fill="#6fe3ff"/><circle cx="120.9" cy="277.4" fill="#6fe3ff" r="15.03"/><g fill="#63316d"><path d="m463.42 388.34h-16.21v-28.49a16.1 16.1 0 0 0 -16.08-16.08h-28.49v-46.224a21.024 21.024 0 1 0 -26.146-26.146h-97.577a21.107 21.107 0 0 0 -14.147-14.146v-50.624h36.08v27.95a6 6 0 0 0 6 6h47.64a6 6 0 0 0 6-6v-27.95h17.83a6 6 0 0 0 6-6v-132.23a6 6 0 0 0 -5.975-6l-120.005-.49v-8.365a5.986 5.986 0 0 0 0-3.49v-25.055a6 6 0 0 0 -6-6h-35.74a6 6 0 0 0 -6 6v36.576l-13.52-.136v-22.66a6 6 0 0 0 -6-6h-26.81a23.641 23.641 0 0 0 -23.584 22.6c-.014.17-.026.34-.026.514v127.116a23.642 23.642 0 0 0 23.61 23.62h88.5v50.624a21.1 21.1 0 0 0 -14.146 14.146h-97.578a21.024 21.024 0 1 0 -26.146 26.146v40.983l-13.456-10.881a16.165 16.165 0 0 0 -10.1-3.578h-40.774a16.108 16.108 0 0 0 -16.09 16.09v134.76a16.047 16.047 0 0 0 3.8 10.37c.066.08.133.158.2.235a16.036 16.036 0 0 0 12.09 5.475h143.63a16.134 16.134 0 0 0 14.038-8.217 5.946 5.946 0 0 0 .345-.72l27.991-70.169a16.094 16.094 0 0 0 -14.254-23.554h-16.2v-28.49a16.1 16.1 0 0 0 -16.08-16.08h-63.14v-46.224a21.1 21.1 0 0 0 14.146-14.146h97.578a21.017 21.017 0 0 0 40.293 0h97.577a21.1 21.1 0 0 0 14.146 14.146v46.224h-26.71a4.085 4.085 0 0 1 -2.569-.907l-18.813-15.2a16.122 16.122 0 0 0 -10.118-3.589h-40.77a16.1 16.1 0 0 0 -16.08 16.09v134.756a16.071 16.071 0 0 0 16.08 16.08h143.64a16.1 16.1 0 0 0 14.036-8.23 6.1 6.1 0 0 0 .337-.707l27.99-70.166a16.086 16.086 0 0 0 -14.243-23.557zm-150.57-159.76v-134.27h35.64v14.55h-10.5a6 6 0 0 0 0 12h10.5v11.48h-10.5a6 6 0 0 0 0 12h10.5v11.23h-10.5a6 6 0 0 0 0 12h10.5v11.23h-10.5a6 6 0 0 0 0 12h10.5v37.78zm-90.25-170.78h23.74v79.64l-11.87 19.668-11.87-19.668zm23.74-26.8v14.8h-23.74v-14.8zm-82.07 13.78h20.81v105.43h-20.81a23.45 23.45 0 0 0 -11.61 3.064v-96.874a11.628 11.628 0 0 1 11.61-11.62zm-11.61 138.23v-9.19a11.623 11.623 0 0 1 11.61-11.61h26.81a6 6 0 0 0 6-6v-82.769l13.52.137v65.532a6 6 0 0 0 .863 3.1l17.87 29.609a6 6 0 0 0 10.273 0l17.871-29.609a6.009 6.009 0 0 0 .863-3.1v-65.2l113.98.466v120.254h-11.83v-9.12a5.962 5.962 0 0 0 .045-.71 5.782 5.782 0 0 0 -.045-.7v-21.82a5.935 5.935 0 0 0 .045-.71 5.782 5.782 0 0 0 -.045-.7v-21.82a5.962 5.962 0 0 0 .045-.71 5.782 5.782 0 0 0 -.045-.7v-22.07a5.935 5.935 0 0 0 .045-.71 5.782 5.782 0 0 0 -.045-.7v-25.85a6 6 0 0 0 -6-6h-47.64a6 6 0 0 0 -6 6v106.32h-136.58a11.628 11.628 0 0 1 -11.61-11.62zm69.66 217.33a4.095 4.095 0 0 1 3.571 6.086 5.986 5.986 0 0 0 -.334.7l-27.939 70.037a4.117 4.117 0 0 1 -3.418 1.837h-143.217l37.845-72.9a14.166 14.166 0 0 1 11.4-5.764zm-28.2-40.49v28.49h-93.89a26.175 26.175 0 0 0 -21.45 11.185 6.18 6.18 0 0 0 -.405.67l-31.9 61.434v-121.469a4.1 4.1 0 0 1 4.09-4.09h40.775a4.112 4.112 0 0 1 2.567.916l18.818 15.214a16 16 0 0 0 6.977 3.249 15 15 0 0 0 3.128.32h67.21a4.084 4.084 0 0 1 4.08 4.081zm-73.22-73.42a9.03 9.03 0 1 1 9.03-9.03 9.04 9.04 0 0 1 -9.03 9.03zm137.87 0a9.03 9.03 0 1 1 9.03-9.03 9.04 9.04 0 0 1 -9.03 9.03zm128.84-9.03a9.03 9.03 0 1 1 9.03 9.03 9.04 9.04 0 0 1 -9.03-9.03zm-100.03 184.231v-121.471a4.09 4.09 0 0 1 4.08-4.09h40.77a4.089 4.089 0 0 1 2.568.917l18.814 15.2a16.121 16.121 0 0 0 10.118 3.578h67.2a4.084 4.084 0 0 1 4.08 4.08v28.49h-93.88a26.179 26.179 0 0 0 -21.45 11.185 5.934 5.934 0 0 0 -.4.67zm179.4-55.212a6.19 6.19 0 0 0 -.338.707l-27.941 70.045a4.089 4.089 0 0 1 -3.401 1.829h-143.217l37.845-72.9a14.167 14.167 0 0 1 11.4-5.764h122.092a4.087 4.087 0 0 1 3.564 6.079z"/><path d="m330.33 196.42a14.42 14.42 0 1 0 14.43 14.42 14.437 14.437 0 0 0 -14.43-14.42zm0 16.84a2.42 2.42 0 1 1 2.43-2.42 2.423 2.423 0 0 1 -2.43 2.42z"/></g></svg>